# xmcd CD database file
#
# Track frame offsets:
#	150
#	31062
#	63493
#	83661
#	104458
#	123933
#	142431
#	174643
#	212423
#	241871
#	273568
#	302436
#
# Disc length: 4391 seconds
#
# Revision: 0
# Processed by: cddbd v1.4PL0 Copyright (c) Steve Scherf et al.
# Submitted via: CDex 1.51
#
DISCID=a311250c
DTITLE=Various Artist - 100% Classic Salsa
DYEAR=1900
DGENRE=Salsa
TTITLE0=Sonido Bestial
TTITLE1=Vamonos pal monte
TTITLE2=Timbalero
TTITLE3=Cuero na' ma'
TTITLE4=Reyna rumba
TTITLE5=Para los rumberos
TTITLE6=Yay boy
TTITLE7=Timbalero
TTITLE8=La cartera
TTITLE9=Quien diji miedo
TTITLE10=Alabancioza
TTITLE11=Yo soy la zarza
EXTD=
EXTT0=
EXTT1=
EXTT2=
EXTT3=
EXTT4=
EXTT5=
EXTT6=
EXTT7=
EXTT8=
EXTT9=
EXTT10=
EXTT11=
PLAYORDER=
